<svg id="Grupo_52" data-name="Grupo 52" xmlns="http://www.w3.org/2000/svg" width="267" height="21.857" viewBox="0 0 267 21.857">
  <g id="Grupo_51" data-name="Grupo 51">
    <g id="Grupo_39" data-name="Grupo 39">
      <path id="Trazado_83" data-name="Trazado 83" d="M7265.067,232.585h-4.006l-.419-2.2a4.662,4.662,0,0,0-.145-.649.9.9,0,0,0-.194-.356.641.641,0,0,0-.308-.155,2.112,2.112,0,0,0-.484-.047h-.614v12.538h1.1v4.737h-9.011v-4.737h1.1V229.18h-.71a.834.834,0,0,0-.694.232,2.714,2.714,0,0,0-.34.945l-.452,2.228h-3.908l.388-7.987h18.441Z" transform="translate(-7245.979 -224.598)" fill="#666"/>
    </g>
    <g id="Grupo_40" data-name="Grupo 40" transform="translate(21.239)">
      <path id="Trazado_84" data-name="Trazado 84" d="M7283.952,240.356c0,.454-.007.836-.016,1.145a3.972,3.972,0,0,1-.083.743,3.379,3.379,0,0,1-.743,1.3,17.693,17.693,0,0,1-1.615,1.61c-.236.206-.506.417-.808.634a3.455,3.455,0,0,1-.9.48,2.827,2.827,0,0,1-.888.17c-.312.011-.76.016-1.341.016h-5.264a9.775,9.775,0,0,1-1.244-.077,2.858,2.858,0,0,1-1.146-.419,4.968,4.968,0,0,1-.6-.433q-.338-.279-.694-.6t-.678-.65c-.216-.216-.377-.387-.484-.511a4.763,4.763,0,0,1-.646-.866,3.1,3.1,0,0,1-.324-.821,4.693,4.693,0,0,1-.114-.882q-.015-.465-.015-1.053v-9.5a11.115,11.115,0,0,1,.031-1.563,2.034,2.034,0,0,1,.419-.975,7.5,7.5,0,0,1,.9-1.037q.579-.573.965-.914a9.176,9.176,0,0,1,1.013-.82,5.973,5.973,0,0,1,.755-.449,3.246,3.246,0,0,1,1.092-.248c.385-.02.933-.031,1.639-.031h4.375c.475,0,.88,0,1.214.016a3.409,3.409,0,0,1,.972.17,3.574,3.574,0,0,1,1.02.573q.552.417,1.394,1.192l.243.232c.141.134.3.294.487.48a4.571,4.571,0,0,1,.517.634,3.134,3.134,0,0,1,.374.728,2.637,2.637,0,0,1,.179.9c.009.33.016.784.016,1.362Zm-10.789-1.331c.044.6.082,1.057.115,1.377a1.267,1.267,0,0,0,.406.821,1.412,1.412,0,0,0,.569.34,3.633,3.633,0,0,0,.962.093,4.172,4.172,0,0,0,.65-.046,1.349,1.349,0,0,0,.586-.263,1.66,1.66,0,0,0,.357-.387,1.271,1.271,0,0,0,.18-.465,4.7,4.7,0,0,0,.065-.619c.011-.237.017-.521.017-.851V232a11.544,11.544,0,0,0-.066-1.44,1.213,1.213,0,0,0-.521-.819,1.638,1.638,0,0,0-.733-.3,6.2,6.2,0,0,0-.765-.046,3.85,3.85,0,0,0-.635.046,1.412,1.412,0,0,0-.6.3,1.148,1.148,0,0,0-.5.819c-.031.321-.06.8-.082,1.44Z" transform="translate(-7266.337 -224.598)" fill="#666"/>
    </g>
    <g id="Grupo_41" data-name="Grupo 41" transform="translate(41.661)">
      <path id="Trazado_85" data-name="Trazado 85" d="M7285.913,241.718h1.1V229.335h-1.1V224.6h13.113a3.607,3.607,0,0,1,.841.093,3.127,3.127,0,0,1,.984.418,8.616,8.616,0,0,1,1.035.743q.5.418.937.852t.727.743a7.315,7.315,0,0,1,.58.665,2.691,2.691,0,0,1,.292.48,2.6,2.6,0,0,1,.192.867q.033.5.034,1.3v9.349c0,.227,0,.454.015.681a2.855,2.855,0,0,1-.049.681,4.144,4.144,0,0,1-.111.651,2.763,2.763,0,0,1-.275.65,4.086,4.086,0,0,1-.533.712c-.228.248-.5.536-.825.867q-.453.463-.968.913a5.5,5.5,0,0,1-1.131.759,3.852,3.852,0,0,1-.564.247,3.317,3.317,0,0,1-.613.14,5.946,5.946,0,0,1-.776.046h-12.9Zm9.77,0q.325,0,.6-.015a2.045,2.045,0,0,0,.6-.141,1.178,1.178,0,0,0,.8-.933,9.59,9.59,0,0,0,.083-1.244v-7.81a6.6,6.6,0,0,0-.067-1.089,1.244,1.244,0,0,0-.324-.653,1.192,1.192,0,0,0-.635-.4,5.023,5.023,0,0,0-1.123-.093h-1.792v12.383Z" transform="translate(-7285.913 -224.598)" fill="#666"/>
    </g>
    <g id="Grupo_42" data-name="Grupo 42" transform="translate(63.645)">
      <path id="Trazado_86" data-name="Trazado 86" d="M7324.6,240.356c0,.454-.007.836-.016,1.145a4.014,4.014,0,0,1-.083.743,3.371,3.371,0,0,1-.743,1.3,17.757,17.757,0,0,1-1.615,1.61q-.355.309-.808.634a3.478,3.478,0,0,1-.9.48,2.827,2.827,0,0,1-.888.17c-.312.011-.76.016-1.34.016h-5.264a9.775,9.775,0,0,1-1.244-.077,2.853,2.853,0,0,1-1.146-.419,4.968,4.968,0,0,1-.6-.433c-.226-.186-.458-.387-.694-.6s-.464-.433-.679-.65-.377-.387-.484-.511a4.8,4.8,0,0,1-.646-.866,3.1,3.1,0,0,1-.323-.821,4.615,4.615,0,0,1-.114-.882c-.012-.31-.016-.661-.016-1.053v-9.5a10.965,10.965,0,0,1,.031-1.563,2.007,2.007,0,0,1,.419-.975,7.426,7.426,0,0,1,.9-1.037c.386-.382.708-.687.964-.914a9.316,9.316,0,0,1,1.012-.82,6.047,6.047,0,0,1,.757-.449,3.246,3.246,0,0,1,1.092-.248q.578-.03,1.639-.031h4.375q.711,0,1.214.016a3.418,3.418,0,0,1,.972.17,3.58,3.58,0,0,1,1.02.573q.551.417,1.394,1.192l.243.232c.141.134.3.294.486.48a4.609,4.609,0,0,1,.518.634,3.134,3.134,0,0,1,.374.728,2.673,2.673,0,0,1,.178.9c.009.33.016.784.016,1.362Zm-10.789-1.331c.043.6.081,1.057.115,1.377a1.267,1.267,0,0,0,.407.821,1.41,1.41,0,0,0,.57.34,3.621,3.621,0,0,0,.962.093,4.177,4.177,0,0,0,.65-.046,1.356,1.356,0,0,0,.586-.263,1.681,1.681,0,0,0,.357-.387,1.261,1.261,0,0,0,.179-.465,4.465,4.465,0,0,0,.065-.619q.018-.355.018-.851V232a11.565,11.565,0,0,0-.065-1.44,1.216,1.216,0,0,0-.521-.819,1.64,1.64,0,0,0-.734-.3,6.194,6.194,0,0,0-.765-.046,3.884,3.884,0,0,0-.636.046,1.422,1.422,0,0,0-.6.3,1.148,1.148,0,0,0-.5.819c-.031.321-.06.8-.081,1.44Z" transform="translate(-7306.985 -224.598)" fill="#666"/>
    </g>
    <g id="Grupo_43" data-name="Grupo 43" transform="translate(92.788)">
      <path id="Trazado_87" data-name="Trazado 87" d="M7334.92,241.718h1.1V229.335h-1.1V224.6h12.209q.9,0,1.437.031a2.958,2.958,0,0,1,.921.186,3.571,3.571,0,0,1,.743.371q.387.249.693.48c.206.155.458.356.761.6a1.112,1.112,0,0,0,.257.232,5.925,5.925,0,0,1,.518.449,6.8,6.8,0,0,1,.566.619,3.159,3.159,0,0,1,.435.712,2.687,2.687,0,0,1,.178.914c.01.34.016.645.016.913v2.925a3.424,3.424,0,0,1-.033.449,2.777,2.777,0,0,1-.161.851,3.054,3.054,0,0,1-.484.759q-.292.309-.728.743a12.57,12.57,0,0,1-.952.851c-.345.279-.688.538-1.035.774a3.392,3.392,0,0,1-.935.48,2.54,2.54,0,0,1-.89.155h-5.5v3.622h1.291v4.737h-9.3Zm9.659-8.266q.547,0,1.049-.047a1.334,1.334,0,0,0,.888-.483,1.93,1.93,0,0,0,.194-.249,1.405,1.405,0,0,0,.194-.437,3.272,3.272,0,0,0,.1-.623v-.687a4.561,4.561,0,0,1-.064-.467,1.341,1.341,0,0,0-.29-.655,1.423,1.423,0,0,0-.986-.624,10.875,10.875,0,0,0-1.178-.062h-1.55v4.334Z" transform="translate(-7334.92 -224.598)" fill="#666"/>
    </g>
    <g id="Grupo_44" data-name="Grupo 44" transform="translate(111.069 0.031)">
      <path id="Trazado_88" data-name="Trazado 88" d="M7371.529,241.718h1.1v4.737h-7.3l-.743-4.737h-4.069l-.807,4.737h-7.268v-4.737h1.162l3.424-17.089h11.143Zm-8.977-12.971-1.454,8.544h2.94Z" transform="translate(-7352.443 -224.629)" fill="#666"/>
    </g>
    <g id="Grupo_45" data-name="Grupo 45" transform="translate(133.095)">
      <path id="Trazado_89" data-name="Trazado 89" d="M7373.556,241.718h1.1V229.335h-1.1V224.6h13.371a4.741,4.741,0,0,1,1.211.233,5.334,5.334,0,0,1,1.082.573c.194.145.422.31.679.5a11.522,11.522,0,0,1,.937.776,6.215,6.215,0,0,1,.549.527c.151.165.3.341.437.527a3.856,3.856,0,0,1,.339.527,1.9,1.9,0,0,1,.16.759q0,.388.034,1.132v2.325a1.963,1.963,0,0,1-.081.574,1.843,1.843,0,0,1-.259.512,2.764,2.764,0,0,1-.533.527,7.755,7.755,0,0,1-1.566,1.069c-.486.238-.845.419-1.082.543l1.1.5c.365.165.732.352,1.1.558l.6.373a1.805,1.805,0,0,1,.728.837,1.524,1.524,0,0,1,.145.621c.011.249.026.579.05.993v2.141h1.1v4.737h-8.139v-6.037q0-.744-.032-1.146a1.247,1.247,0,0,0-.292-.712,1.512,1.512,0,0,0-.937-.511,7.858,7.858,0,0,0-1.064-.077h-1.648v8.483h-7.978Zm9.5-7.957h.354a2.479,2.479,0,0,0,.583-.062,1.588,1.588,0,0,0,1.242-1.067,2.491,2.491,0,0,0,.129-.644c.011-.2.016-.34.016-.425a6.617,6.617,0,0,0-.049-.831,1.721,1.721,0,0,0-.306-.769,1.485,1.485,0,0,0-.727-.518,3.906,3.906,0,0,0-1.276-.11h-1.485v4.426Z" transform="translate(-7373.556 -224.598)" fill="#666"/>
    </g>
    <g id="Grupo_46" data-name="Grupo 46" transform="translate(155.962)">
      <path id="Trazado_90" data-name="Trazado 90" d="M7395.475,241.718h1.1V229.335h-1.1V224.6h13.371a4.763,4.763,0,0,1,1.211.233,5.388,5.388,0,0,1,1.082.573q.29.217.678.5a11.517,11.517,0,0,1,.937.776,6.21,6.21,0,0,1,.548.527q.227.247.438.527a3.836,3.836,0,0,1,.338.527,1.9,1.9,0,0,1,.162.759q0,.388.033,1.132v2.325a1.947,1.947,0,0,1-.081.574,1.817,1.817,0,0,1-.259.512,2.718,2.718,0,0,1-.533.527,7.73,7.73,0,0,1-1.566,1.069q-.728.357-1.081.543l1.1.5c.366.165.732.352,1.1.558l.6.373a1.8,1.8,0,0,1,.728.837,1.485,1.485,0,0,1,.145.621c.012.249.027.579.049.993v2.141h1.1v4.737h-8.138v-6.037c0-.5-.012-.878-.031-1.146a1.257,1.257,0,0,0-.292-.712,1.512,1.512,0,0,0-.937-.511,7.879,7.879,0,0,0-1.064-.077h-1.648v8.483h-7.978Zm9.5-7.957h.354a2.494,2.494,0,0,0,.583-.062,1.651,1.651,0,0,0,.838-.424,1.669,1.669,0,0,0,.4-.643,2.6,2.6,0,0,0,.129-.644c.01-.2.016-.34.016-.425a6.526,6.526,0,0,0-.049-.831,1.71,1.71,0,0,0-.306-.769,1.48,1.48,0,0,0-.727-.518,3.9,3.9,0,0,0-1.276-.11h-1.485v4.426Z" transform="translate(-7395.475 -224.598)" fill="#666"/>
    </g>
    <path id="Trazado_91" data-name="Trazado 91" d="M7417.424,241.718h1.1V229.335h-1.1V224.6h9.011v4.737h-1.1v12.383h1.1v4.737h-9.011v-4.737" transform="translate(-7238.563 -224.598)" fill="#666"/>
    <g id="Grupo_47" data-name="Grupo 47" transform="translate(190.907)">
      <path id="Trazado_92" data-name="Trazado 92" d="M7445.347,246.455h-16.375v-4.776h1.1V229.335h-1.1V224.6h9.044v4.737h-1.066v12.352h2.164q.646,0,.841-.309a2.111,2.111,0,0,0,.259-.867l.354-2.291h5.264Z" transform="translate(-7428.971 -224.598)" fill="#666"/>
    </g>
    <g id="Grupo_48" data-name="Grupo 48" transform="translate(209.703)">
      <path id="Trazado_93" data-name="Trazado 93" d="M7463.364,246.455h-16.376v-4.776h1.1V229.335h-1.1V224.6h9.044v4.737h-1.067v12.352h2.164q.646,0,.841-.309a2.111,2.111,0,0,0,.259-.867l.354-2.291h5.264Z" transform="translate(-7446.988 -224.598)" fill="#666"/>
    </g>
    <g id="Grupo_49" data-name="Grupo 49" transform="translate(227.984 0.031)">
      <path id="Trazado_94" data-name="Trazado 94" d="M7483.6,241.718h1.1v4.737h-7.3l-.743-4.737h-4.068l-.808,4.737h-7.267v-4.737h1.162l3.424-17.089h11.143Zm-8.978-12.971-1.454,8.544h2.94Z" transform="translate(-7464.511 -224.629)" fill="#666"/>
    </g>
    <g id="Grupo_50" data-name="Grupo 50" transform="translate(250.154)">
      <path id="Trazado_95" data-name="Trazado 95" d="M7502.059,231.5h-5.329l-.259-1.393a1.384,1.384,0,0,0-.163-.588.622.622,0,0,0-.291-.279,1.416,1.416,0,0,0-.388-.124,2.254,2.254,0,0,0-.339-.031h-1.082c-.042,0-.151,0-.324.016a2.966,2.966,0,0,0-.515.077,1.171,1.171,0,0,0-.583.294,1.4,1.4,0,0,0-.29.433,1.483,1.483,0,0,0-.114.45c-.01.144-.016.258-.016.34v.8a.844.844,0,0,0,.258.619,2.369,2.369,0,0,0,.9.34l6.589,1.672a13.369,13.369,0,0,1,1.325.464,1.9,1.9,0,0,1,.743.62,2.144,2.144,0,0,1,.324.835c.042.29.074.733.1,1.332v3.529a11.34,11.34,0,0,1-.065,1.424,2.139,2.139,0,0,1-.355.9c-.109.145-.377.449-.807.913a13.285,13.285,0,0,1-1.421,1.316,5.723,5.723,0,0,1-.857.542,3.726,3.726,0,0,1-.792.294,5.128,5.128,0,0,1-.839.124c-.3.021-.635.031-1,.031H7486.33l-.549-7.214h5.426l.419,1.858a1.238,1.238,0,0,0,.388.727,1.935,1.935,0,0,0,.839.171h1.162c.194,0,.378,0,.549-.016a1.666,1.666,0,0,0,.551-.139,1.142,1.142,0,0,0,.613-.48,2.4,2.4,0,0,0,.225-1.068v-.805a.968.968,0,0,0-.468-.774,7.72,7.72,0,0,0-1.276-.433l-5.716-1.548a14.075,14.075,0,0,1-1.664-.573,1.508,1.508,0,0,1-.823-.79,2.559,2.559,0,0,1-.194-.851q-.031-.479-.032-1.285v-3.374c0-.041-.006-.175-.015-.4a2.535,2.535,0,0,1,.047-.65,2.263,2.263,0,0,1,.274-.883,5.016,5.016,0,0,1,.888-.975c.065-.062.182-.17.356-.325s.38-.33.629-.526.518-.393.808-.588a5.932,5.932,0,0,1,.921-.511,3.055,3.055,0,0,1,1.242-.356q.663-.047,1.922-.047h8.624Z" transform="translate(-7485.762 -224.598)" fill="#666"/>
    </g>
  </g>
</svg>
